# Blender 4.0.1
# www.blender.org
mtllib house_body.mtl
o Cube
v -2.887483 -0.012849 2.887483
v -2.887483 5.762117 2.887483
v -2.887483 -0.012849 -2.887483
v -2.887483 5.762117 -2.887483
v 2.887483 -0.012849 2.887483
v 2.887483 5.762117 2.887483
v 2.887483 -0.012849 -2.887483
v 2.887483 5.762117 -2.887483
v -2.887483 -0.012849 -0.962494
v -2.887483 -0.012849 0.962494
v -2.887483 5.762117 0.962494
v -2.887483 5.762117 -0.962494
v 2.887483 -0.012849 0.962494
v 2.887483 -0.012849 -0.962494
v 2.887483 5.762117 -0.962494
v 2.887483 5.762117 0.962494
v -2.887483 1.580721 2.887483
v -2.887483 3.505710 2.887483
v -2.887483 3.505710 -2.887483
v -2.887483 1.580721 -2.887483
v 2.887483 3.505710 -2.887483
v 2.887483 1.580721 -2.887483
v 2.887483 3.505710 2.887483
v 2.887483 1.580721 2.887483
v 2.887483 3.505710 -0.962494
v 2.887483 1.580721 -0.962494
v 2.887483 3.505710 0.962494
v 2.887483 1.580721 0.962494
v -2.887483 3.505710 0.962494
v -2.887483 1.580721 0.962494
v -2.887483 3.505710 -0.962494
v -2.887483 1.580721 -0.962494
v 1.732490 -0.012849 -2.887483
v 0.577497 -0.012849 -2.887483
v -0.577497 -0.012849 -2.887483
v -1.732490 -0.012849 -2.887483
v -1.732490 5.762117 -2.887483
v -0.577497 5.762117 -2.887483
v 0.577497 5.762117 -2.887483
v 1.732490 5.762117 -2.887483
v -1.732490 -0.012849 2.887483
v -0.577497 -0.012849 2.887483
v 0.577497 -0.012849 2.887483
v 1.732490 -0.012849 2.887483
v 1.732490 5.762117 2.887483
v 0.577497 5.762117 2.887483
v -0.577497 5.762117 2.887483
v -1.732490 5.762117 2.887483
v -1.732490 5.762117 -0.962494
v -0.577497 5.762117 -0.962494
v 0.577497 5.762117 -0.962494
v 1.732490 5.762117 -0.962494
v -1.732490 5.762117 0.962494
v -0.577497 5.762117 0.962494
v 0.577497 5.762117 0.962494
v 1.732490 5.762117 0.962494
v 1.732490 -0.012849 -0.962494
v 0.577497 -0.012849 -0.962494
v -0.577497 -0.012849 -0.962494
v -1.732490 -0.012849 -0.962494
v 1.732490 -0.012849 0.962494
v 0.577497 -0.012849 0.962494
v -0.577497 -0.012849 0.962494
v -1.732490 -0.012849 0.962494
v 1.732490 1.580721 2.887483
v 0.577497 1.580721 2.887483
v -0.577497 1.580721 2.887483
v -1.732490 1.580721 2.887483
v 1.732490 3.505710 2.887483
v 0.577497 3.505710 2.887483
v -0.577497 3.505710 2.887483
v -1.732490 3.505710 2.887483
v -1.732490 1.580721 -2.887483
v -0.577497 1.580721 -2.887483
v 0.577497 1.580721 -2.887483
v 1.732490 1.580721 -2.887483
v -1.732490 3.505710 -2.887483
v -0.577497 3.505710 -2.887483
v 0.577497 3.505710 -2.887483
v 1.732490 3.505710 -2.887483
vn -1.0000 -0.0000 -0.0000
vn -0.0000 -0.0000 -1.0000
vn 1.0000 -0.0000 -0.0000
vn -0.0000 -0.0000 1.0000
vn -0.0000 -1.0000 -0.0000
vn -0.0000 1.0000 -0.0000
vt 0.438757 0.390722
vt 0.438757 0.000000
vt 0.658135 0.000000
vt 0.658135 0.390722
vt 0.526508 0.390722
vt 0.526508 0.000000
vt 0.219378 0.609278
vt 0.219378 1.000000
vt 0.000000 1.000000
vt -0.000000 0.609278
vt 0.131627 0.609278
vt 0.131627 1.000000
vt -0.000000 0.609278
vt 0.438757 0.200000
vt 0.438757 -0.000000
vt 0.658135 0.000000
vt 0.658135 0.200000
vt 0.219378 0.800000
vt 0.219378 1.000000
vt 0.000000 1.000000
vt 0.000000 0.800000
vt 0.658135 0.800000
vt 0.658135 1.000000
vt 0.438757 1.000000
vt 0.438757 0.800000
vt 0.000000 0.200000
vt 0.000000 -0.000000
vt 0.219378 -0.000000
vt 0.219378 0.200000
vt 0.658135 0.609278
vt 0.658135 1.000000
vt 0.438757 1.000000
vt 0.438757 0.609278
vt 0.000000 0.390722
vt 0.000000 0.000000
vt 0.219378 0.000000
vt 0.219378 0.390722
vt 0.219378 1.000000
vt 0.219378 0.724056
vt 0.438757 0.724055
vt 0.438757 1.000000
vt 0.000000 1.000000
vt 0.000000 0.724055
vt 0.658135 0.000000
vt 0.658135 0.275945
vt 0.438757 0.275945
vt 0.438757 0.000000
vt 0.131627 0.000000
vt 0.131627 0.275945
vt -0.000000 0.275945
vt -0.000000 0.000000
vt 0.219378 0.000000
vt 0.219378 0.275945
vt -0.000000 0.275945
vt 0.526508 1.000000
vt 0.526508 0.724055
vt 0.658135 0.724055
vt 0.658135 0.724056
vt 0.000000 0.724055
vt 0.000000 0.390722
vt 0.131627 0.390722
vt 0.131627 0.724055
vt 0.941307 0.085012
vt 0.954022 1.000205
vt 0.082171 1.001940
vt 0.069456 0.086747
vt 0.263254 0.724055
vt 0.263254 0.390722
vt 0.394881 0.390722
vt 0.394881 0.724055
vt 0.942066 0.086394
vt 0.946840 0.999906
vt 0.077408 1.000558
vt 0.072634 0.087046
vt 0.131627 1.000000
vt 0.263254 1.000000
vt 0.394881 1.000000
vt 0.658135 0.275945
vt 0.526508 0.609278
vt 0.526508 0.275945
vt 0.944987 0.087311
vt 0.944987 0.995270
vt 0.074488 0.995270
vt 0.074488 0.087311
vt 0.394881 0.275945
vt 0.394881 0.609278
vt 0.263254 0.609278
vt 0.263254 0.275945
vt 0.947383 0.084078
vt 0.947383 1.002884
vt 0.071297 1.002884
vt 0.071297 0.084078
vt 0.394881 0.000000
vt 0.263254 0.000000
vt 0.219378 1.000000
vt 0.219378 0.800000
vt 0.438757 0.800000
vt 0.438757 1.000000
vt 0.219378 0.600000
vt 0.438757 0.600000
vt 0.219378 0.400000
vt 0.438757 0.400000
vt 0.000000 1.000000
vt 0.000000 0.800000
vt 0.000000 0.600000
vt 0.000000 0.400000
vt 0.438757 0.000000
vt 0.438757 0.200000
vt 0.219378 0.200000
vt 0.219378 0.000000
vt 0.438757 0.400000
vt 0.219378 0.400000
vt 0.438757 0.600000
vt 0.219378 0.600000
vt 0.658135 -0.000000
vt 0.658135 0.400000
vt 0.658135 0.600000
vt 0.000000 0.200000
vt 0.000000 0.000000
vt 0.000000 0.400000
vt 0.000000 0.600000
vt 0.658135 0.800000
vt 0.658135 1.000000
vt 0.658135 0.600000
vt 0.263254 1.000000
vt 0.131627 0.000000
vt 0.263254 0.000000
vt 0.394881 0.000000
vt 0.998713 0.452829
vt 0.998713 0.997320
vt -0.004775 0.997320
vt -0.004775 0.452829
vt -0.004776 0.002081
vt 0.998713 0.002081
s 0
usemtl Bricks
f 31/1/1 12/2/1 4/3/1 19/4/1
f 80/5/2 40/6/2 8/3/2 21/4/2
f 27/7/3 16/8/3 6/9/3 23/10/3
f 72/11/4 48/12/4 2/9/4 18/13/4
f 61/14/5 13/15/5 5/16/5 44/17/5
f 53/18/6 11/19/6 2/20/6 48/21/6
f 37/22/6 4/23/6 12/24/6 49/25/6
f 49/25/6 12/24/6 11/19/6 53/18/6
f 33/26/5 7/27/5 14/28/5 57/29/5
f 57/29/5 14/28/5 13/15/5 61/14/5
f 21/30/3 8/31/3 15/32/3 25/33/3
f 25/33/3 15/32/3 16/8/3 27/7/3
f 18/34/1 2/35/1 11/36/1 29/37/1
f 29/37/1 11/36/1 12/2/1 31/1/1
f 10/38/1 30/39/1 32/40/1 9/41/1
f 30/39/1 29/37/1 31/1/1 32/40/1
f 1/42/1 17/43/1 30/39/1 10/38/1
f 17/43/1 18/34/1 29/37/1 30/39/1
f 7/44/3 22/45/3 26/46/3 14/47/3
f 22/45/3 21/30/3 25/33/3 26/46/3
f 41/48/4 68/49/4 17/50/4 1/51/4
f 68/49/4 72/11/4 18/13/4 17/50/4
f 13/52/3 28/53/3 24/54/3 5/51/3
f 28/53/3 27/7/3 23/10/3 24/54/3
f 33/55/2 76/56/2 22/57/2 7/31/2
f 76/56/2 80/5/2 21/4/2 22/57/2
f 9/41/1 32/40/1 20/58/1 3/31/1
f 32/40/1 31/1/1 19/4/1 20/58/1
f 20/59/2 19/60/2 77/61/2 73/62/2
f 74/67/2 78/68/2 79/69/2 75/70/2
f 3/42/2 20/59/2 73/62/2 36/75/2
f 36/75/2 73/62/2 74/67/2 35/76/2
f 35/76/2 74/67/2 75/70/2 34/77/2
f 34/77/2 75/70/2 76/56/2 33/55/2
f 24/78/4 23/30/4 69/79/4 65/80/4
f 66/85/4 70/86/4 71/87/4 67/88/4
f 5/44/4 24/78/4 65/80/4 44/6/4
f 44/6/4 65/80/4 66/85/4 43/93/4
f 43/93/4 66/85/4 67/88/4 42/94/4
f 42/94/4 67/88/4 68/49/4 41/48/4
f 9/95/5 60/96/5 64/97/5 10/98/5
f 60/96/5 59/99/5 63/100/5 64/97/5
f 59/99/5 58/101/5 62/102/5 63/100/5
f 58/101/5 57/29/5 61/14/5 62/102/5
f 3/103/5 36/104/5 60/96/5 9/95/5
f 36/104/5 35/105/5 59/99/5 60/96/5
f 35/105/5 34/106/5 58/101/5 59/99/5
f 34/106/5 33/26/5 57/29/5 58/101/5
f 15/107/6 52/108/6 56/109/6 16/110/6
f 52/108/6 51/111/6 55/112/6 56/109/6
f 51/111/6 50/113/6 54/114/6 55/112/6
f 50/113/6 49/25/6 53/18/6 54/114/6
f 8/115/6 40/17/6 52/108/6 15/107/6
f 40/17/6 39/116/6 51/111/6 52/108/6
f 39/116/6 38/117/6 50/113/6 51/111/6
f 38/117/6 37/22/6 49/25/6 50/113/6
f 16/110/6 56/109/6 45/118/6 6/119/6
f 56/109/6 55/112/6 46/120/6 45/118/6
f 55/112/6 54/114/6 47/121/6 46/120/6
f 54/114/6 53/18/6 48/21/6 47/121/6
f 10/98/5 64/97/5 41/122/5 1/123/5
f 64/97/5 63/100/5 42/124/5 41/122/5
f 63/100/5 62/102/5 43/116/5 42/124/5
f 62/102/5 61/14/5 44/17/5 43/116/5
f 23/30/4 6/31/4 45/55/4 69/79/4
f 69/79/4 45/55/4 46/77/4 70/86/4
f 70/86/4 46/77/4 47/125/4 71/87/4
f 71/87/4 47/125/4 48/12/4 72/11/4
f 19/60/2 4/35/2 37/126/2 77/61/2
f 77/61/2 37/126/2 38/127/2 78/68/2
f 78/68/2 38/127/2 39/128/2 79/69/2
f 79/69/2 39/128/2 40/6/2 80/5/2
usemtl Window
f 73/63/2 77/64/2 78/65/2 74/66/2
f 75/71/2 79/72/2 80/73/2 76/74/2
f 65/81/4 69/82/4 70/83/4 66/84/4
f 67/89/4 71/90/4 72/91/4 68/92/4
usemtl Door
f 26/129/3 25/130/3 27/131/3 28/132/3 13/133/3 14/134/3
